<svg version="1.1" xmlns="http://www.w3.org/2000/svg" xmlns:xlink="http://www.w3.org/1999/xlink" width="87.20105" height="106.83016" viewBox="0,0,87.20105,106.83016"><g transform="translate(-199.5,-99.94527)"><g data-paper-data="{&quot;isPaintingLayer&quot;:true}" fill="#fffd00" fill-rule="nonzero" stroke-linecap="butt" stroke-linejoin="miter" stroke-miterlimit="10" stroke-dasharray="" stroke-dashoffset="0" style="mix-blend-mode: normal"><g><path d="M279.5,180c0,14.23538 -17.68475,25.77543 -39.5,25.77543c-21.81525,0 -39.5,-11.54005 -39.5,-25.77543c0,-14.23538 17.68475,-25.77543 39.5,-25.77543c21.81525,0 39.5,11.54005 39.5,25.77543z" stroke="#000000" stroke-width="2"/><path d="M229.4697,160c0,1.22961 -0.88771,2.25189 -2.05722,2.46091c-0.06406,0.52089 -0.33174,1.08284 -0.99126,1.5958c-1.44708,1.12551 -2.65836,0.36453 -3.20152,-0.12143v0.64805c0,1.38071 -1.11929,2.5 -2.5,2.5c-1.28062,0 -2.33633,-0.96288 -2.48268,-2.20416l-0.17794,-1.33456c-0.75523,-0.32759 -1.31704,-1.01712 -1.46658,-1.84974l-0.03947,-0.19733v1.83579c0,1.38071 -1.11929,2.5 -2.5,2.5c-0.11144,0 -0.22117,-0.00729 -0.32875,-0.02142c0.11556,3.32051 0.28975,6.21748 1.45046,9.64752c0,0 0.79057,2.37171 -1.58114,3.16228c-2.37171,0.79057 -3.16228,-1.58114 -3.16228,-1.58114c-2.46431,-7.49095 -2.17746,-15.83588 -2.20181,-23.68514c-0.00943,-3.0426 -1.00553,-6.2973 0.11227,-9.12715c0.80226,-2.03102 4.31392,-6.4029 6.58922,-7.66852c5.56621,-3.09617 10.21666,0.22696 14.94731,2.93721c2.80553,1.60733 7.23618,5.69756 8.90296,0.91425c0.18778,-0.53889 0.18129,-1.12686 0.27193,-1.69029c-0.73721,-5.20995 -4.60813,-9.64842 -7.72707,-13.71689c-5.05488,-6.59379 -11.24268,-12.56881 -14.57096,-20.26924l-0.49051,-1.44423c0,0 -0.79057,-2.37171 1.58114,-3.16228c0.68882,-0.22961 1.24426,-0.19248 1.6857,-0.02418c1.83324,-0.69373 2.91527,1.10965 2.91527,1.10965c3.23417,5.39313 6.62127,10.85777 10.80794,15.57878c0.50797,0.57279 4.52391,4.97197 5.86412,5.45808c5.37954,1.95122 9.97771,-1.69944 14.39399,3.69721c0.89487,1.09351 1.30407,2.50717 1.94295,3.76748c2.58701,5.10332 6.31789,11.59771 7.29427,17.33091c0.01659,0.09745 0.03445,0.19609 0.05318,0.2957c3.17642,-1.06855 6.87211,-2.58544 7.08641,-5.38628c0.16992,-2.22075 -1.71788,-4.11785 -2.7751,-6.07818c-2.00116,-3.71064 -4.6341,-7.14724 -6.49941,-10.91789c-0.59491,-1.20258 -1.67636,-2.37275 -1.56209,-3.70956c0.38106,-4.45809 2.52422,-5.05339 6.0438,-5.40815c0.09803,-0.00988 6.32388,-0.00851 7.7062,-0.00851l1.59305,-0.36812c0,0 2.45145,-0.49029 2.94174,1.96116c0.18769,0.93844 -0.05571,1.58949 -0.42766,2.03565c0.00761,0.03076 0.011,0.04769 0.011,0.04769c0.2099,1.18759 0.11715,2.47111 0.62971,3.56277c1.2479,2.65779 5.05228,4.43437 6.24795,7.07914c0.59429,1.31455 0.58767,2.83586 0.66604,4.27637c0.06742,1.23914 0.338,2.61299 -0.23119,3.71573c-1.64592,3.18876 -6.03294,4.58235 -8.05401,7.75394c-0.42873,0.67279 -0.66135,1.45539 -1.06693,2.14238c-0.19584,0.33173 -0.95601,0.58732 -0.72783,0.89769c0.68624,0.93338 1.89339,1.33566 2.85012,1.98895c4.24687,2.89991 13.85599,8.13419 7.1646,14.33042c-1.03632,0.95964 -2.67556,0.90605 -4.01333,1.35907c-1.15755,0.14701 -2.3151,0.29401 -3.47264,0.44102l-2.44961,0.40879c0,0 -2.06771,0.34462 -2.73192,-1.49066c-1.00364,0.01777 -2.12499,-0.21915 -3.22165,-0.55866h-2.37409c-1.38071,0 -2.5,-1.11929 -2.5,-2.5c0,-0.38737 0.0881,-0.75415 0.24536,-1.08142c-0.2267,0.02877 -0.45499,0.04487 -0.68394,0.04756c-0.43959,0.38433 -1.01498,0.6172 -1.64476,0.6172c-1.09812,0 -2.03087,-0.708 -2.36669,-1.69242l-0.37462,-1.01942c-0.30852,0.1362 -0.64977,0.21184 -1.00869,0.21184c-1.01808,0 -1.89401,-0.60855 -2.28391,-1.48173l-0.41389,-0.87532c-0.38027,0.8956 -1.26788,1.52371 -2.30219,1.52371c-0.65477,0 -1.25075,-0.25171 -1.69645,-0.66366l-0.24354,0.20367l0.27011,0.18008l-1.64515,2.46774c-0.44513,0.68926 -1.2201,1.14551 -2.10163,1.14551c-1.38071,0 -2.5,-1.11929 -2.5,-2.5c0,-0.11851 0.00824,-0.2351 0.02419,-0.34921l0.00801,-0.0641l-0.5656,0.70701c-0.45772,0.5823 -1.16849,0.9563 -1.9666,0.9563c-0.36255,0 -0.70708,-0.07718 -1.01805,-0.21599l-1.04699,1.57048c-0.44513,0.68926 -1.2201,1.14551 -2.10163,1.14551c-1.38071,0 -2.5,-1.11929 -2.5,-2.5c0,-0.14474 0.0123,-0.28661 0.03591,-0.42461l0.75344,-4.89739l0.20802,0.032c-0.00591,-0.17639 -0.01112,-0.35263 -0.01561,-0.52883c-1.69475,2.1508 -3.58447,4.09823 -4.8319,3.6815c-1.19457,-0.39908 -1.97953,-1.59178 -2.39988,-2.94627z" stroke="none" stroke-width="0.5"/></g></g></g></svg>